<svg width="24" height="14" viewBox="0 0 24 14" fill="none" xmlns="http://www.w3.org/2000/svg">
<path fill-rule="evenodd" clip-rule="evenodd" d="M18.75 0.25H3C1.75736 0.25 0.75 1.25736 0.75 2.5V11.5C0.75 12.7426 1.75736 13.75 3 13.75H18.75C19.9926 13.75 21 12.7426 21 11.5V2.5C21 1.25736 19.9926 0.25 18.75 0.25ZM19.5 11.5C19.5 11.9142 19.1642 12.25 18.75 12.25H3C2.58579 12.25 2.25 11.9142 2.25 11.5V2.5C2.25 2.08579 2.58579 1.75 3 1.75H18.75C19.1642 1.75 19.5 2.08579 19.5 2.5V11.5ZM24 4V10C24 10.4142 23.6642 10.75 23.25 10.75C22.8358 10.75 22.5 10.4142 22.5 10V4C22.5 3.58579 22.8358 3.25 23.25 3.25C23.6642 3.25 24 3.58579 24 4ZM13.0134 6.60531C13.1503 6.82658 13.1627 7.10297 13.0463 7.33562L11.5463 10.3356C11.3609 10.7063 10.9101 10.8566 10.5394 10.6713C10.1687 10.4859 10.0184 10.0351 10.2037 9.66438L11.1619 7.75H9.375C9.11493 7.75019 8.87332 7.61563 8.73655 7.39442C8.59978 7.17322 8.58737 6.89695 8.70375 6.66438L10.2037 3.66438C10.3891 3.29365 10.8399 3.14339 11.2106 3.32875C11.5813 3.51411 11.7316 3.9649 11.5463 4.33562L10.5881 6.25H12.375C12.635 6.24976 12.8766 6.38421 13.0134 6.60531Z" fill="black"/>
</svg>
