<svg t="1732707688267" class="icon" viewBox="0 0 1024 1024" version="1.1"
    xmlns="http://www.w3.org/2000/svg" p-id="5265" width="200" height="200">
    <path
        d="M736 469.333333a32 32 0 0 1 32-32h170.666667a32 32 0 0 1 32 32v341.333334a32 32 0 0 1-32 32h-93.44l-54.613334 54.613333a32 32 0 0 1-45.226666 0l-54.613334-54.613333H469.333333a32 32 0 0 1-32-32v-170.666667a32 32 0 0 1 32-32h266.666667V469.333333z m64 32V640a32 32 0 0 1-32 32h-266.666667v106.666667h202.666667a32 32 0 0 1 22.613333 9.386666l41.386667 41.386667 41.386667-41.386667a32 32 0 0 1 22.613333-9.386666h74.666667v-277.333334h-106.666667z"
        fill="#1C1B1E" p-id="5266"></path>
    <path
        d="M53.333333 128A32 32 0 0 1 85.333333 96h682.666667a32 32 0 0 1 32 32v512a32 32 0 0 1-32 32H375.893333l-75.946666 75.946667a32 32 0 0 1-45.226667 0l-75.946667-75.946667H85.333333a32 32 0 0 1-32-32V128z m64 32v448H192a32 32 0 0 1 22.613333 9.386667l62.72 62.72 62.72-62.72a32 32 0 0 1 22.613334-9.386667h373.333333V160H117.333333z"
        fill="#1C1B1E" p-id="5267"></path>
    <path
        d="M373.333333 384a32 32 0 0 1 32-32h21.333334a32 32 0 0 1 0 64h-21.333334A32 32 0 0 1 373.333333 384zM522.666667 384a32 32 0 0 1 32-32h21.333333a32 32 0 0 1 0 64H554.666667a32 32 0 0 1-32-32zM224 384A32 32 0 0 1 256 352h21.333333a32 32 0 0 1 0 64H256A32 32 0 0 1 224 384z"
        fill="#1C1B1E" p-id="5268"></path>
</svg>