<svg t="1736056833623" class="icon" viewBox="0 0 1024 1024" version="1.1" xmlns="http://www.w3.org/2000/svg" p-id="6924" width="200" height="200"><path d="M861.866667 857.6L145.066667 179.2c-12.8-8.533333-17.066667-29.866667-4.266667-42.666667 12.8-12.8 29.866667-12.8 42.666667 0L904.533333 810.666667c12.8 12.8 12.8 29.866667 0 42.666666-4.266667 4.266667-12.8 8.533333-21.333333 8.533334-8.533333 4.266667-17.066667 0-21.333333-4.266667zM768 853.333333H170.666667c-46.933333 0-85.333333-38.4-85.333334-85.333333V256c0-21.333333 8.533333-42.666667 25.6-59.733333L768 853.333333z m170.666667-81.066666L302.933333 170.666667H426.666667l85.333333 85.333333h341.333333c46.933333 0 85.333333 38.4 85.333334 85.333333v430.933334z" p-id="6925"></path></svg>